<?xml version="1.0" encoding="utf-8"?>
<!-- Generator: Adobe Illustrator 24.0.2, SVG Export Plug-In . SVG Version: 6.00 Build 0)  -->
<svg version="1.1" id="Layer_1" xmlns="http://www.w3.org/2000/svg" xmlns:xlink="http://www.w3.org/1999/xlink" x="0px" y="0px"
	 viewBox="0 0 1366 768" style="enable-background:new 0 0 1366 768;" xml:space="preserve">
<style type="text/css">
	.st0{fill:none;stroke:#FFFFFF;stroke-width:2;stroke-miterlimit:10;}
	.st1{fill-rule:evenodd;clip-rule:evenodd;fill:none;stroke:#FFFFFF;stroke-width:2;stroke-miterlimit:10;}
</style>
<g>
	<g>
		<path class="st0" d="M283.67,461.54c0,0-1.17-54.04,54.33-54.04s54.5,0,54.5,0v10h-54c0,0-43-1-44,44"/>
		<path class="st0" d="M283.67,460.46c0,0-1.17,54.04,54.33,54.04s54.5,0,54.5,0v-10h-54c0,0-43,1-44-44"/>
	</g>
	<path class="st0" d="M447.5,504.5c0,0-38.4,0.89-43.46-37h85.46v-11h-85.69c3.96-39.92,43.69-39,43.69-39h54v-10
		c-0.04,0-1.8,0-54.5,0c-50.87,0-54.13,45.39-54.32,52.96l-0.01,0c0,0,0,0.19,0,0.54c0,0.35,0,0.54,0,0.54l0.01,0
		c0.19,7.57,3.45,52.96,54.32,52.96c52.7,0,54.46,0,54.5,0v-10H447.5z"/>
	<path class="st0" d="M795.5,504.5c0,0-38.4,0.89-43.46-37h85.46v-11h-85.69c3.96-39.92,43.69-39,43.69-39h54v-10
		c-0.04,0-1.8,0-54.5,0c-50.87,0-54.13,45.39-54.32,52.96l-0.01,0c0,0,0,0.19,0,0.54c0,0.35,0,0.54,0,0.54l0.01,0
		c0.19,7.57,3.45,52.96,54.32,52.96c52.7,0,54.46,0,54.5,0v-10H795.5z"/>
	<polygon class="st0" points="721.5,406.5 721.5,454.5 637.5,454.5 637.5,406.5 625.5,406.5 625.5,454.5 625.5,466.5 625.5,514.5 
		637.5,514.5 637.5,466.5 721.5,466.5 721.5,514.5 733.5,514.5 733.5,466.5 733.5,454.5 733.5,406.5 	"/>
	<polygon class="st0" points="857.5,418.5 905.5,418.5 905.5,502.5 857.5,502.5 857.5,514.5 905.5,514.5 917.5,514.5 965.5,514.5 
		965.5,502.5 917.5,502.5 917.5,418.5 965.5,418.5 965.5,406.5 917.5,406.5 905.5,406.5 857.5,406.5 	"/>
	<path class="st0" d="M1082.33,460.45L1082.33,460.45c-0.2-7.71-3.46-53.94-54.33-53.94c-52.7,0-54.46,0-54.5,0v0.99v9.19v97.81h0
		v0.99c0.04,0,1.8,0,54.5,0c50.87,0,54.13-46.23,54.32-53.94l0.01,0c0,0,0-0.19,0-0.55
		C1082.33,460.65,1082.33,460.45,1082.33,460.45z M1027.5,505.31h-44v-88.61l44,0c0,0,42.67-1,43.98,44.31
		C1070.17,506.31,1027.5,505.31,1027.5,505.31z"/>
	<path class="st1" d="M587.5,406.5h-66h-12v10v39v10v49h12v-49h66c0,0,30,0,30-29.5S587.5,406.5,587.5,406.5z"/>
	<path class="st1" d="M587.5,416.5h-66v39h66c0,0,20,0,20-19.5S587.5,416.5,587.5,416.5z"/>
</g>
</svg>
